<svg width="48" height="48" viewBox="0 0 48 48" xmlns="http://www.w3.org/2000/svg">
  <!-- Background circle with gradient -->
  <defs>
    <linearGradient id="bg" x1="0%" y1="0%" x2="100%" y2="100%">
      <stop offset="0%" style="stop-color:#4F46E5;stop-opacity:1" />
      <stop offset="100%" style="stop-color:#7C3AED;stop-opacity:1" />
    </linearGradient>
  </defs>
  
  <!-- Background -->
  <circle cx="24" cy="24" r="22" fill="url(#bg)" stroke="#1F2937" stroke-width="2"/>
  
  <!-- Letter "C" for Capture -->
  <path d="M 18 14 C 14 14 11 17 11 21 L 11 27 C 11 31 14 34 18 34 L 22 34 C 24 34 25 33 25 33 L 23 30 C 23 30 22 31 20 31 L 18 31 C 16 31 14 29 14 27 L 14 21 C 14 19 16 17 18 17 L 20 17 C 22 17 23 18 23 18 L 25 15 C 25 15 24 14 22 14 L 18 14 Z" fill="white"/>
  
  <!-- Data visualization elements -->
  <rect x="28" y="18" width="2" height="8" fill="white" opacity="0.8"/>
  <rect x="31" y="15" width="2" height="11" fill="white" opacity="0.8"/>
  <rect x="34" y="20" width="2" height="6" fill="white" opacity="0.8"/>
  
  <!-- Connection dots -->
  <circle cx="29" cy="30" r="1.5" fill="white" opacity="0.6"/>
  <circle cx="32" cy="30" r="1.5" fill="white" opacity="0.6"/>
  <circle cx="35" cy="30" r="1.5" fill="white" opacity="0.6"/>
</svg>